<svg width="22" height="26" viewBox="0 0 22 26" fill="none" xmlns="http://www.w3.org/2000/svg">
<path d="M21.458 7.70565L21.4573 7.68646C21.4466 7.44961 21.4394 7.19902 21.4351 6.92021C21.415 5.56059 20.3342 4.43595 18.9743 4.35995C16.1392 4.20173 13.946 3.27726 12.072 1.4507L12.0561 1.43547C11.4448 0.875027 10.5228 0.875027 9.91137 1.43547L9.89538 1.4507C8.02142 3.27726 5.8282 4.20173 2.99308 4.36014C1.63346 4.43595 0.552469 5.56059 0.532339 6.9204C0.528201 7.19732 0.520863 7.44791 0.51014 7.68646L0.509011 7.73105C0.453889 10.622 0.38541 14.22 1.58907 17.4858C2.25091 19.2817 3.25326 20.8428 4.5681 22.126C6.06562 23.5874 8.02706 24.7476 10.3979 25.5742C10.475 25.6011 10.5552 25.623 10.6368 25.6393C10.7519 25.6623 10.8678 25.6738 10.9837 25.6738C11.0996 25.6738 11.2157 25.6623 11.3306 25.6393C11.4123 25.623 11.493 25.601 11.5705 25.5739C13.9385 24.7457 15.8979 23.585 17.3941 22.1237C18.7083 20.8401 19.7107 19.2787 20.3731 17.4824C21.5813 14.2069 21.513 10.6021 21.458 7.70565ZM19.0155 16.9818C17.746 20.4238 15.1546 22.7877 11.093 24.208C11.0785 24.2129 11.0631 24.2173 11.0471 24.2205C11.0052 24.2287 10.9625 24.2287 10.9199 24.2203C10.9041 24.2171 10.8887 24.2129 10.8744 24.208C6.80855 22.7903 4.21536 20.4278 2.9468 16.9855C1.8374 13.9753 1.90023 10.6725 1.95573 7.7587L1.95611 7.74253C1.96739 7.49212 1.97492 7.22987 1.97906 6.94166C1.98809 6.33795 2.46895 5.83846 3.07379 5.80479C4.67816 5.71524 6.08763 5.4052 7.38272 4.85699C8.67611 4.30953 9.82483 3.53782 10.8942 2.49784C10.9485 2.45193 11.0191 2.45174 11.0733 2.49784C12.1428 3.53782 13.2915 4.30953 14.5847 4.85699C15.8798 5.4052 17.2893 5.71524 18.8938 5.80479C19.4987 5.83846 19.9795 6.33795 19.9884 6.94184C19.9927 7.23156 20.0002 7.49382 20.0115 7.74253C20.0668 10.6597 20.1281 13.9651 19.0155 16.9818Z" fill="#727C8E" stroke="#727C8E" stroke-width="0.2"/>
<path d="M10.9834 7.19971C7.5948 7.19971 4.83813 9.95657 4.83813 13.345C4.83813 16.7336 7.5948 19.4904 10.9834 19.4904C14.3718 19.4904 17.1287 16.7336 17.1287 13.345C17.1287 9.95657 14.3718 7.19971 10.9834 7.19971ZM10.9834 18.0433C8.39266 18.0433 6.28504 15.9357 6.28504 13.345C6.28504 10.7542 8.39266 8.64662 10.9834 8.64662C13.574 8.64662 15.6816 10.7542 15.6816 13.345C15.6816 15.9357 13.574 18.0433 10.9834 18.0433Z" fill="#727C8E" stroke="#727C8E" stroke-width="0.2"/>
<path d="M12.7495 11.4369L9.89525 14.2912L9.12053 13.5165C8.83796 13.2339 8.37984 13.2339 8.09729 13.5165C7.8149 13.7991 7.8149 14.2572 8.09729 14.5395L9.38372 15.826C9.52501 15.9673 9.71012 16.0378 9.89525 16.0378C10.0804 16.0378 10.2655 15.9673 10.4068 15.826L13.7728 12.46C14.0552 12.1774 14.0552 11.7193 13.7728 11.4369C13.4902 11.1542 13.0321 11.1542 12.7495 11.4369Z" fill="#727C8E" stroke="#727C8E" stroke-width="0.2"/>
</svg>
