<svg width="23" height="28" viewBox="0 0 23 28" fill="none" xmlns="http://www.w3.org/2000/svg">
<path d="M5.33348 27.0127C4.12974 27.0127 2.97056 26.5062 2.15245 25.6238C1.33433 24.7403 0.918317 23.5453 1.00975 22.3459L2.19932 7.35638C2.27342 6.3934 3.09044 5.63739 4.05772 5.63739H6.40758V5.53171C6.40758 2.69287 8.7158 0.384521 11.5547 0.384521C14.3924 0.384521 16.7019 2.69287 16.7019 5.53171V5.63739H19.0505C20.019 5.63739 20.8349 6.3934 20.9089 7.35858L22.0985 22.3437C22.1911 23.5453 21.7739 24.7403 20.957 25.6238C20.1389 26.5062 18.9787 27.0127 17.775 27.0127H5.33348ZM3.75499 7.47839L2.56541 22.4668C2.50548 23.2446 2.76573 23.9897 3.29637 24.5638C3.82799 25.1368 4.55125 25.4528 5.33348 25.4528H17.775C18.557 25.4528 19.2805 25.1368 19.8121 24.5638C20.3437 23.9897 20.6029 23.2446 20.543 22.4646L19.3545 7.48059C19.3425 7.32047 19.2085 7.19733 19.0505 7.19733H16.7019V9.11786C16.7019 9.54816 16.3523 9.89786 15.922 9.89786C15.4916 9.89786 15.1421 9.54816 15.1421 9.11786V7.19733H7.96641V9.11786C7.96641 9.54816 7.6179 9.89786 7.18748 9.89786C6.75621 9.89786 6.40758 9.54816 6.40758 9.11786V7.19733H4.05772C3.89976 7.19733 3.76695 7.32047 3.75499 7.47839ZM7.96641 5.53171V5.63739H15.1421V5.53171C15.1421 3.55344 13.5329 1.94449 11.5547 1.94449C9.57652 1.94449 7.96641 3.55344 7.96641 5.53171ZM9.65819 19.0669L7.45006 16.8589C7.09373 16.5026 7.09373 15.9263 7.45006 15.5701C7.80626 15.215 8.38243 15.215 8.73875 15.5701L10.3031 17.1344L14.3707 13.0668C14.7258 12.7106 15.3032 12.7106 15.6583 13.0668C16.0145 13.423 16.0145 13.9993 15.6583 14.3555L10.9469 19.0669C10.7683 19.2456 10.5351 19.3339 10.302 19.3339C10.069 19.3339 9.8358 19.2445 9.65819 19.0669Z" fill="#727C8E" stroke="#727C8E" stroke-width="0.2"/>
</svg>
