<svg width="24" height="24" viewBox="0 0 24 24" fill="none" xmlns="http://www.w3.org/2000/svg">
<path d="M10.1251 22.1251C10.1251 21.0894 10.9642 20.2502 12.0001 20.2502C12.7063 20.2502 13.3208 20.6401 13.6406 21.2169V21.1877H16.5004C17.0166 21.1877 17.4379 20.7665 17.4379 20.2502V19.2653V16.8752V10.4535C17.4379 9.93506 17.8568 9.51599 18.3752 9.51599H20.2501C22.3174 9.51599 24 11.1976 24 13.2658V16.4529C24 18.5211 22.3174 20.2027 20.2501 20.2027H19.3127V20.2502C19.3127 21.8011 18.0513 23.0626 16.5004 23.0626H13.6406V23.0323C13.3208 23.6091 12.7063 24 12.0001 24C10.9642 24 10.1251 23.1608 10.1251 22.1251ZM19.3127 16.8752V18.3278H20.2501C21.2837 18.3278 22.1251 17.4865 22.1251 16.4529V13.2658C22.1251 12.2311 21.2837 11.3909 20.2501 11.3909H19.3127V16.8752ZM3.74988 20.2027C1.68164 20.2027 0 18.5211 0 16.4529V13.2658C0 11.8801 0.755981 10.6683 1.8761 10.0193C1.90295 7.35382 2.95288 4.85254 4.84058 2.96576C6.7533 1.05304 9.29565 0 12.0001 0C14.1104 0 16.1321 0.642639 17.8483 1.85876C19.5255 3.04779 20.7881 4.69159 21.4987 6.61182C21.678 7.09784 21.4307 7.63678 20.9446 7.81714C20.4597 7.9964 19.9197 7.74805 19.7404 7.26312C18.5481 4.04034 15.4376 1.87494 12.0001 1.87494C7.65625 1.87494 4.08582 5.24994 3.77258 9.51599H5.62476C6.14319 9.51599 6.56213 9.93506 6.56213 10.4535V19.2653C6.56213 19.7836 6.14319 20.2027 5.62476 20.2027H3.74988ZM1.875 13.2658V16.4529C1.875 17.4865 2.71631 18.3278 3.74988 18.3278H4.68726V11.3909H3.74988C2.71631 11.3909 1.875 12.2311 1.875 13.2658Z" fill="#727C8E"/>
</svg>
