<svg width="26" height="26" viewBox="0 0 26 26" fill="none" xmlns="http://www.w3.org/2000/svg">
<path d="M17.4583 22.1964L21.3398 25.1075V22.1964H25.755V9.04778H16.9731V0.265869H0.91333V13.4145H5.32855V16.3256L9.21006 13.4145H9.69525V22.1964H17.4583ZM24.2994 20.7408H19.8842V22.1964L17.9435 20.7408H11.1508V10.5034H24.2994V20.7408ZM8.72487 11.9589L6.78411 13.4145V11.9589H2.3689V1.72144H15.5175V9.04778H12.3283L8.96746 2.32603L5.40531 9.45015L6.70717 10.1012L7.59775 8.32H10.3372L10.7011 9.04778H9.69525V11.9589H8.72487ZM9.60939 6.86444H8.32554L8.96746 5.58058L9.60939 6.86444Z" fill="#727C8E"/>
<path d="M16.6804 16.7821C15.8999 17.4394 15.163 17.7813 14.7898 17.7813V19.2368C15.7276 19.2368 16.8542 18.5506 17.701 17.8233C18.5478 18.5506 19.6743 19.2368 20.6121 19.2368V17.7813C20.2389 17.7813 19.502 17.4394 18.7216 16.7821C19.1442 16.2683 19.5888 15.5956 19.7831 14.8701H21.3399V13.4146H18.4287V11.959H16.9731V13.4146H14.062V14.8701H15.6188C15.813 15.5956 16.2577 16.2683 16.6804 16.7821ZM17.701 15.7296C17.4714 15.4343 17.2887 15.1415 17.1638 14.8696H18.2381C18.1132 15.1415 17.9305 15.4343 17.701 15.7296Z" fill="#727C8E"/>
</svg>
