<svg width="20" height="21" viewBox="0 0 20 21" fill="none" xmlns="http://www.w3.org/2000/svg">
<path d="M15.4892 10.6726V1.69654H2.09205V18.443H8.25472C8.69683 18.443 9.05853 18.8047 9.05853 19.2468C9.05853 19.6889 8.69683 20.0506 8.25472 20.0506H1.28819C0.846076 20.0506 0.484375 19.6889 0.484375 19.2468V0.892683C0.484375 0.450568 0.846122 0.0888672 1.28819 0.0888672H16.293C16.7351 0.0888672 17.0968 0.450568 17.0968 0.892683V10.6726C17.0968 11.1147 16.7351 11.4764 16.293 11.4764C15.8509 11.4764 15.4892 11.1147 15.4892 10.6726ZM19.6289 12.6286C19.294 12.3338 18.7849 12.3606 18.4902 12.6956L14.0825 17.5989L11.872 15.4688C11.5504 15.1606 11.0413 15.174 10.7332 15.4956C10.4251 15.8171 10.4384 16.3262 10.76 16.6343L13.5734 19.3405C13.7207 19.4879 13.9217 19.5683 14.136 19.5683C14.1494 19.5683 14.1494 19.5683 14.1629 19.5683C14.3772 19.5549 14.5915 19.4611 14.7255 19.3004L19.6825 13.7807C19.9906 13.4324 19.9638 12.9233 19.6289 12.6286ZM12.5418 4.77788H5.30736C4.86525 4.77788 4.50355 5.13958 4.50355 5.58169C4.50355 6.02381 4.86525 6.38551 5.30736 6.38551H12.5418C12.9839 6.38551 13.3456 6.02381 13.3456 5.58169C13.3456 5.13958 12.9839 4.77788 12.5418 4.77788ZM13.3457 10.0027C13.3457 9.56064 12.984 9.19893 12.5418 9.19893H5.30736C4.86525 9.19893 4.50355 9.56064 4.50355 10.0027C4.50355 10.4449 4.86525 10.8066 5.30736 10.8066H12.5418C12.9839 10.8066 13.3457 10.4449 13.3457 10.0027ZM5.30736 13.486C4.86525 13.486 4.50355 13.8477 4.50355 14.2898C4.50355 14.7319 4.86525 15.0936 5.30736 15.0936H7.4509C7.89302 15.0936 8.25472 14.7319 8.25472 14.2898C8.25472 13.8477 7.89302 13.486 7.4509 13.486H5.30736Z" fill="#727C8E"/>
</svg>
