<svg width="20" height="30" viewBox="0 0 20 30" fill="none" xmlns="http://www.w3.org/2000/svg">
<path d="M8.8668 14.109V9.86244H19.0447L16.7048 5.18276L19.0306 0.415039H7.26173V1.21758V9.86244V14.109C3.45802 14.5111 0.484375 17.7379 0.484375 21.6464C0.484375 25.8259 3.88472 29.2262 8.06425 29.2262C12.2438 29.2262 15.6441 25.8259 15.6441 21.6464C15.6441 17.7378 12.6704 14.5111 8.8668 14.109ZM8.8668 2.02012H16.4617L14.9147 5.19151L16.4476 8.25736H8.8668V2.02012ZM8.06425 27.6211C4.76968 27.6211 2.08945 24.9409 2.08945 21.6464C2.08945 18.6241 4.34553 16.1205 7.26173 15.727V21.6464H8.8668V15.727C11.7829 16.1205 14.039 18.6241 14.039 21.6464C14.039 24.9409 11.3588 27.6211 8.06425 27.6211Z" fill="#727C8E"/>
</svg>
