<svg id="_001-mail" data-name="001-mail" xmlns="http://www.w3.org/2000/svg" width="20.428" height="15.002" viewBox="0 0 20.428 15.002">
  <g id="Group_114" data-name="Group 114" transform="translate(0 0)">
    <g id="Group_113" data-name="Group 113">
      <path id="Path_64" data-name="Path 64" d="M18.034,68H2.394A2.4,2.4,0,0,0,0,70.394V80.608A2.4,2.4,0,0,0,2.394,83h15.64a2.4,2.4,0,0,0,2.394-2.394V70.394A2.4,2.4,0,0,0,18.034,68Zm.8,12.608a.8.8,0,0,1-.8.8H2.394a.8.8,0,0,1-.8-.8V70.394a.8.8,0,0,1,.8-.8h15.64a.8.8,0,0,1,.8.8Z" transform="translate(0 -68)" fill="#727c8e"/>
    </g>
  </g>
  <g id="Group_116" data-name="Group 116" transform="translate(0.779 0.995)">
    <g id="Group_115" data-name="Group 115" transform="translate(0 0)">
      <path id="Path_65" data-name="Path 65" d="M37.44,92.937l-8.483,6.309-8.483-6.309-.953,1.281,9.435,7.018,9.435-7.018Z" transform="translate(-19.522 -92.937)" fill="#727c8e"/>
    </g>
  </g>
</svg>
