<svg id="_002-password" data-name="002-password" xmlns="http://www.w3.org/2000/svg" width="20.627" height="23.574" viewBox="0 0 20.627 23.574">
  <g id="Group_118" data-name="Group 118">
    <g id="Group_117" data-name="Group 117">
      <circle id="Ellipse_18" data-name="Ellipse 18" cx="0.963" cy="0.963" r="0.963" transform="translate(14.577 14.952)" fill="#727c8e"/>
      <path id="Path_66" data-name="Path 66" d="M51.707,16.668a.921.921,0,0,0,.921-.921V12.34a3.688,3.688,0,0,0-3.683-3.683H47.837V5.409a5.526,5.526,0,0,0-11.05,0V8.656h-1.1A3.688,3.688,0,0,0,32,12.34v7.551a3.688,3.688,0,0,0,3.683,3.683h13.26a3.688,3.688,0,0,0,3.683-3.683.921.921,0,1,0-1.842,0,1.844,1.844,0,0,1-1.842,1.842H35.683a1.844,1.844,0,0,1-1.842-1.842V12.34A1.844,1.844,0,0,1,35.683,10.5h13.26a1.844,1.844,0,0,1,1.842,1.842v3.407A.921.921,0,0,0,51.707,16.668ZM46,8.656H38.629V5.409a3.685,3.685,0,0,1,7.367,0Z" transform="translate(-32)" fill="#727c8e"/>
      <circle id="Ellipse_19" data-name="Ellipse 19" cx="0.963" cy="0.963" r="0.963" transform="translate(7.655 14.952)" fill="#727c8e"/>
      <circle id="Ellipse_20" data-name="Ellipse 20" cx="0.963" cy="0.963" r="0.963" transform="translate(4.217 14.952)" fill="#727c8e"/>
      <circle id="Ellipse_21" data-name="Ellipse 21" cx="0.963" cy="0.963" r="0.963" transform="translate(11.093 14.952)" fill="#727c8e"/>
    </g>
  </g>
</svg>
