<svg xmlns="http://www.w3.org/2000/svg" xmlns:xlink="http://www.w3.org/1999/xlink" width="35" height="35" viewBox="0 0 35 35">
  <defs>
    <clipPath id="clip-path">
      <rect id="Rectangle_1582" data-name="Rectangle 1582" width="15.482" height="20.035" fill="none"/>
    </clipPath>
  </defs>
  <g id="Group_404" data-name="Group 404" transform="translate(-147 -1893)">
    <g id="Group_402" data-name="Group 402" transform="translate(146.758 1893.421)">
      <g id="Group_174" data-name="Group 174" transform="translate(0 0)">
        <g id="Group_164" data-name="Group 164" transform="translate(0 0)">
          <circle id="Ellipse_22" data-name="Ellipse 22" cx="17.5" cy="17.5" r="17.5" transform="translate(0.242 -0.421)"/>
        </g>
      </g>
    </g>
    <g id="Group_403" data-name="Group 403" transform="translate(156.189 1900.371)">
      <g id="Group_385" data-name="Group 385" clip-path="url(#clip-path)">
        <path id="Path_199" data-name="Path 199" d="M7.73,20.033q-3.039,0-6.078,0A1.639,1.639,0,0,1,.027,18.675a3.367,3.367,0,0,1-.009-.781q.26-3.779.531-7.557Q.664,8.7.772,7.071A1.872,1.872,0,0,1,2.543,5.332c.161-.006.214-.046.225-.211A7.118,7.118,0,0,1,3.406,2.48,4.119,4.119,0,0,1,6.591.1,6.255,6.255,0,0,1,9.437.238,4.2,4.2,0,0,1,12.3,3.047a7.825,7.825,0,0,1,.412,2.112c.009.124.042.166.172.171a1.875,1.875,0,0,1,1.826,1.813c.11,1.721.238,3.44.358,5.16s.24,3.44.359,5.16c.018.266.039.533.05.8a1.656,1.656,0,0,1-1.69,1.77q-3.03.005-6.061,0m0-1.251h5.973c.378,0,.546-.168.522-.529-.067-1-.138-2-.208-3.006q-.164-2.345-.328-4.69c-.079-1.123-.156-2.247-.24-3.37a.6.6,0,0,0-.665-.605q-5.05,0-10.1,0a.6.6,0,0,0-.661.61q-.142,1.928-.275,3.856Q1.5,14.6,1.257,18.154c-.033.477.1.628.573.628h5.9M7.742,5.325c1.178,0,2.356,0,3.534,0,.158,0,.2-.044.185-.2a7.013,7.013,0,0,0-.346-1.683,2.989,2.989,0,0,0-2.27-2.068,5.258,5.258,0,0,0-2.126-.025A2.906,2.906,0,0,0,4.467,3.175a6.588,6.588,0,0,0-.448,1.942c-.018.175.042.212.206.211,1.172-.006,2.344,0,3.516,0" transform="translate(0 0)" fill="#fff"/>
        <path id="Path_200" data-name="Path 200" d="M70.551,178.793a.625.625,0,1,1-.616-.627.624.624,0,0,1,.616.627" transform="translate(-66.255 -170.336)" fill="#fff"/>
        <path id="Path_201" data-name="Path 201" d="M255.728,178.8a.625.625,0,1,1-.628-.634.626.626,0,0,1,.628.634" transform="translate(-243.294 -170.339)" fill="#fff"/>
      </g>
    </g>
  </g>
</svg>
