<?xml version="1.0" encoding="UTF-8"?>
<svg id="Layer_1" xmlns="http://www.w3.org/2000/svg" version="1.1" viewBox="0 0 800 800">
  <!-- Generator: Adobe Illustrator 29.6.0, SVG Export Plug-In . SVG Version: 2.1.1 Build 207)  -->
  <defs>
    <style>
      .st0 {
        fill: #292d32;
      }
    </style>
  </defs>
  <path class="st0" d="M598,123.94c77.7,6.04,128.61,62.65,132.34,139.64,4.71,97.42-2.21,196.72-1.92,294.1-12.22,64.85-64.06,112.13-130.42,116.15-24.07-.96-48.34-1.32-72.71-1.32-76.21,0-153.54,3.55-229.72,3.55-30.44,0-60.69-.57-90.63-2.15-69.41-3.68-121.78-50.71-133.7-118.84,1.1-96.12-6.45-197.2-1.55-292.98,3.8-74.31,54.53-131.71,129.77-137.72l398.54-.43M598,76.12h-.05l-398.54.43c-1.25,0-2.51.05-3.76.15-97.17,7.76-168.61,82.99-173.72,182.94-2.99,58.43-1.49,118.67-.05,176.92.97,39.1,1.97,79.52,1.54,117.96-.03,2.94.2,5.88.71,8.78,7.73,44.22,28.68,82.62,60.57,111.05,32.05,28.57,72.75,44.93,117.7,47.31,28.19,1.49,58.66,2.22,93.16,2.22,38.64,0,77.94-.91,115.94-1.79,37.47-.87,76.22-1.76,113.78-1.76,25.95,0,49.11.42,70.81,1.28.63.03,1.27.04,1.9.04.96,0,1.93-.03,2.89-.09,43.28-2.62,82.89-19.01,114.54-47.4,31.24-28.02,51.98-65.23,59.97-107.63.56-2.97.84-5.98.83-9-.11-36.53.84-74.34,1.76-110.9,1.52-60.68,3.1-123.42.1-185.37-4.98-102.84-75.86-177.18-176.39-185-1.23-.1-2.47-.14-3.7-.14h0Z"/>
  <path class="st0" d="M189.86,240.96c6.17-5.46,19.48-8.42,27.26-5.03l182.31,128.67,182.63-128.2c35.67-10.39,51.99,35.16,19.64,52.52-60.81,38.85-117.61,88.02-178.11,126.73-22.49,14.39-25.87,13.95-47.88-.61-63.17-41.79-123.55-90.8-186.35-133.44-11.55-10.47-11.16-30.34.5-40.65Z"/>
</svg>