<?xml version="1.0" standalone="no"?>
<!DOCTYPE svg PUBLIC "-//W3C//DTD SVG 20010904//EN"
 "http://www.w3.org/TR/2001/REC-SVG-20010904/DTD/svg10.dtd">
<svg version="1.0" xmlns="http://www.w3.org/2000/svg"
 width="512.000000pt" height="512.000000pt" viewBox="0 0 512.000000 512.000000"
 preserveAspectRatio="xMidYMid meet">
<metadata>
Created by potrace 1.10, written by Peter Selinger 2001-2011
</metadata>
<g transform="translate(0.000000,512.000000) scale(0.050000,-0.050000)"
fill="#000000" stroke="none">
<path d="M4055 10220 c-3144 -361 -4967 -3631 -3596 -6450 1260 -2590 4609
-3340 6856 -1537 2086 1673 2255 4795 364 6686 -942 943 -2348 1447 -3624
1301z m724 -1750 c511 -136 797 -523 833 -1129 l14 -241 368 0 369 0 59 -59
59 -59 -5 -1766 -6 -1766 -56 -106 c-68 -130 -184 -245 -309 -307 l-95 -47
-1510 0 -1510 0 -95 47 c-125 62 -241 177 -309 307 l-56 106 -6 1766 -5 1766
59 59 59 59 371 0 372 0 1 55 c11 433 39 578 154 785 235 426 774 656 1244
530z"/>
<path d="M4290 8133 c-361 -119 -535 -370 -547 -788 l-6 -245 763 0 764 0 -8
245 c-17 569 -482 948 -966 788z"/>
<path d="M2869 6735 c-5 -14 -7 -743 -4 -1619 6 -1780 -6 -1633 143 -1745 87
-65 2897 -65 2984 0 150 112 138 -39 138 1765 l0 1614 -250 0 -250 0 -14 -170
c-30 -370 -331 -368 -355 3 l-11 167 -750 0 -750 0 -11 -167 c-23 -356 -324
-376 -351 -23 -6 83 -15 161 -19 175 -11 36 -486 36 -500 0z m1962 -425 c862
-219 1262 -1260 768 -1998 -613 -916 -2021 -727 -2350 314 -314 993 575 1939
1582 1684z"/>
<path d="M4200 5954 c-923 -314 -873 -1618 71 -1863 541 -141 1112 246 1189
806 98 708 -591 1286 -1260 1057z m951 -803 c69 -69 65 -158 -9 -233 l-59 -58
-583 0 -583 0 -59 58 c-74 75 -78 164 -9 233 l49 49 602 0 602 0 49 -49z"/>
</g>
</svg>
